<mxfile host="app.diagrams.net" agent="Mozilla/5.0 (Macintosh; Intel Mac OS X 10_15_7) AppleWebKit/537.36 (KHTML, like Gecko) Chrome/131.0.0.0 Safari/537.36" version="26.0.5">
  <diagram name="第 1 页" id="Osy3OomdR44iI89eC3qM">
    <mxGraphModel dx="954" dy="598" grid="0" gridSize="10" guides="1" tooltips="1" connect="1" arrows="1" fold="1" page="1" pageScale="1" pageWidth="3000" pageHeight="3020" math="0" shadow="0">
      <root>
        <mxCell id="0" />
        <mxCell id="1" parent="0" />
        <mxCell id="i_3d9nIhgQnH6pDFInhz-1" value="nimbus" style="rounded=1;whiteSpace=wrap;html=1;" vertex="1" parent="1">
          <mxGeometry x="363" y="25" width="120" height="60" as="geometry" />
        </mxCell>
        <mxCell id="i_3d9nIhgQnH6pDFInhz-2" value="zookeeper" style="rounded=1;whiteSpace=wrap;html=1;" vertex="1" parent="1">
          <mxGeometry x="185" y="248" width="120" height="60" as="geometry" />
        </mxCell>
        <mxCell id="i_3d9nIhgQnH6pDFInhz-3" value="zookeeper" style="rounded=1;whiteSpace=wrap;html=1;" vertex="1" parent="1">
          <mxGeometry x="588" y="240" width="120" height="60" as="geometry" />
        </mxCell>
        <mxCell id="i_3d9nIhgQnH6pDFInhz-4" value="zookeeper" style="rounded=1;whiteSpace=wrap;html=1;" vertex="1" parent="1">
          <mxGeometry x="375" y="244" width="120" height="60" as="geometry" />
        </mxCell>
        <mxCell id="i_3d9nIhgQnH6pDFInhz-5" value="" style="html=1;shadow=0;dashed=0;align=center;verticalAlign=middle;shape=mxgraph.arrows2.twoWayArrow;dy=0.6;dx=35;rotation=90;" vertex="1" parent="1">
          <mxGeometry x="375" y="137" width="100" height="60" as="geometry" />
        </mxCell>
        <mxCell id="i_3d9nIhgQnH6pDFInhz-6" value="" style="html=1;shadow=0;dashed=0;align=center;verticalAlign=middle;shape=mxgraph.arrows2.twoWayArrow;dy=0.6;dx=35;rotation=90;" vertex="1" parent="1">
          <mxGeometry x="383" y="351" width="100" height="60" as="geometry" />
        </mxCell>
        <mxCell id="i_3d9nIhgQnH6pDFInhz-7" value="supervisor" style="rounded=1;whiteSpace=wrap;html=1;" vertex="1" parent="1">
          <mxGeometry x="185" y="498" width="120" height="60" as="geometry" />
        </mxCell>
        <mxCell id="i_3d9nIhgQnH6pDFInhz-8" value="supervisor" style="rounded=1;whiteSpace=wrap;html=1;" vertex="1" parent="1">
          <mxGeometry x="591" y="496" width="120" height="60" as="geometry" />
        </mxCell>
        <mxCell id="i_3d9nIhgQnH6pDFInhz-9" value="supervisor" style="rounded=1;whiteSpace=wrap;html=1;" vertex="1" parent="1">
          <mxGeometry x="383" y="496" width="120" height="60" as="geometry" />
        </mxCell>
        <mxCell id="i_3d9nIhgQnH6pDFInhz-10" value="" style="shape=curlyBracket;whiteSpace=wrap;html=1;rounded=1;flipH=1;labelPosition=right;verticalLabelPosition=middle;align=left;verticalAlign=middle;rotation=-90;size=0.5;" vertex="1" parent="1">
          <mxGeometry x="233" y="519" width="20" height="120" as="geometry" />
        </mxCell>
        <mxCell id="i_3d9nIhgQnH6pDFInhz-11" value="" style="shape=curlyBracket;whiteSpace=wrap;html=1;rounded=1;flipH=1;labelPosition=right;verticalLabelPosition=middle;align=left;verticalAlign=middle;rotation=-90;size=0.5;" vertex="1" parent="1">
          <mxGeometry x="429" y="519" width="20" height="120" as="geometry" />
        </mxCell>
        <mxCell id="i_3d9nIhgQnH6pDFInhz-12" value="" style="shape=curlyBracket;whiteSpace=wrap;html=1;rounded=1;flipH=1;labelPosition=right;verticalLabelPosition=middle;align=left;verticalAlign=middle;rotation=-90;size=0.5;" vertex="1" parent="1">
          <mxGeometry x="646" y="521" width="20" height="120" as="geometry" />
        </mxCell>
        <mxCell id="i_3d9nIhgQnH6pDFInhz-14" value="woker" style="text;html=1;align=center;verticalAlign=middle;resizable=0;points=[];autosize=1;strokeColor=none;fillColor=none;" vertex="1" parent="1">
          <mxGeometry x="161" y="599" width="50" height="26" as="geometry" />
        </mxCell>
        <mxCell id="i_3d9nIhgQnH6pDFInhz-15" value="woker" style="text;html=1;align=center;verticalAlign=middle;resizable=0;points=[];autosize=1;strokeColor=none;fillColor=none;" vertex="1" parent="1">
          <mxGeometry x="199" y="599" width="50" height="26" as="geometry" />
        </mxCell>
        <mxCell id="i_3d9nIhgQnH6pDFInhz-16" value="woker" style="text;html=1;align=center;verticalAlign=middle;resizable=0;points=[];autosize=1;strokeColor=none;fillColor=none;" vertex="1" parent="1">
          <mxGeometry x="241" y="599" width="50" height="26" as="geometry" />
        </mxCell>
        <mxCell id="i_3d9nIhgQnH6pDFInhz-17" value="woker" style="text;html=1;align=center;verticalAlign=middle;resizable=0;points=[];autosize=1;strokeColor=none;fillColor=none;" vertex="1" parent="1">
          <mxGeometry x="398" y="599" width="50" height="26" as="geometry" />
        </mxCell>
        <mxCell id="i_3d9nIhgQnH6pDFInhz-18" value="woker" style="text;html=1;align=center;verticalAlign=middle;resizable=0;points=[];autosize=1;strokeColor=none;fillColor=none;" vertex="1" parent="1">
          <mxGeometry x="281" y="599" width="50" height="26" as="geometry" />
        </mxCell>
        <mxCell id="i_3d9nIhgQnH6pDFInhz-19" value="woker" style="text;html=1;align=center;verticalAlign=middle;resizable=0;points=[];autosize=1;strokeColor=none;fillColor=none;" vertex="1" parent="1">
          <mxGeometry x="475" y="599" width="50" height="26" as="geometry" />
        </mxCell>
        <mxCell id="i_3d9nIhgQnH6pDFInhz-20" value="woker" style="text;html=1;align=center;verticalAlign=middle;resizable=0;points=[];autosize=1;strokeColor=none;fillColor=none;" vertex="1" parent="1">
          <mxGeometry x="439" y="599" width="50" height="26" as="geometry" />
        </mxCell>
        <mxCell id="i_3d9nIhgQnH6pDFInhz-21" value="woker" style="text;html=1;align=center;verticalAlign=middle;resizable=0;points=[];autosize=1;strokeColor=none;fillColor=none;" vertex="1" parent="1">
          <mxGeometry x="355" y="599" width="50" height="26" as="geometry" />
        </mxCell>
        <mxCell id="i_3d9nIhgQnH6pDFInhz-22" value="woker" style="text;html=1;align=center;verticalAlign=middle;resizable=0;points=[];autosize=1;strokeColor=none;fillColor=none;" vertex="1" parent="1">
          <mxGeometry x="661" y="597" width="50" height="26" as="geometry" />
        </mxCell>
        <mxCell id="i_3d9nIhgQnH6pDFInhz-23" value="woker" style="text;html=1;align=center;verticalAlign=middle;resizable=0;points=[];autosize=1;strokeColor=none;fillColor=none;" vertex="1" parent="1">
          <mxGeometry x="623" y="597" width="50" height="26" as="geometry" />
        </mxCell>
        <mxCell id="i_3d9nIhgQnH6pDFInhz-24" value="woker" style="text;html=1;align=center;verticalAlign=middle;resizable=0;points=[];autosize=1;strokeColor=none;fillColor=none;" vertex="1" parent="1">
          <mxGeometry x="580" y="597" width="50" height="26" as="geometry" />
        </mxCell>
        <mxCell id="i_3d9nIhgQnH6pDFInhz-25" value="woker" style="text;html=1;align=center;verticalAlign=middle;resizable=0;points=[];autosize=1;strokeColor=none;fillColor=none;" vertex="1" parent="1">
          <mxGeometry x="701" y="597" width="50" height="26" as="geometry" />
        </mxCell>
      </root>
    </mxGraphModel>
  </diagram>
</mxfile>
